<mxfile host="app.diagrams.net" agent="Mozilla/5.0 (Windows NT 10.0; Win64; x64) AppleWebKit/537.36 (KHTML, like Gecko) Chrome/140.0.0.0 Safari/537.36" version="28.2.5">
  <diagram name="PÃ¡gina-1" id="WFPhaUAllbfEyeVUevuk">
    <mxGraphModel dx="815" dy="444" grid="1" gridSize="10" guides="1" tooltips="1" connect="1" arrows="1" fold="1" page="1" pageScale="1" pageWidth="827" pageHeight="1169" math="0" shadow="0">
      <root>
        <mxCell id="0" />
        <mxCell id="1" parent="0" />
        <mxCell id="OS8sJ7_-E5P468ARwp3r-38" value="" style="endArrow=block;dashed=1;endFill=0;endSize=12;html=1;rounded=0;exitX=0.446;exitY=-0.006;exitDx=0;exitDy=0;entryX=0.492;entryY=1.088;entryDx=0;entryDy=0;entryPerimeter=0;exitPerimeter=0;" edge="1" parent="1" source="OS8sJ7_-E5P468ARwp3r-26">
          <mxGeometry width="160" relative="1" as="geometry">
            <mxPoint x="589.74" y="235.43200000000002" as="sourcePoint" />
            <mxPoint x="399.7199999999999" y="152.28800000000007" as="targetPoint" />
            <Array as="points">
              <mxPoint x="590" y="197" />
              <mxPoint x="400" y="197" />
            </Array>
          </mxGeometry>
        </mxCell>
        <mxCell id="OS8sJ7_-E5P468ARwp3r-1" value="&lt;div&gt;&amp;lt;&amp;lt;INTERFACE&amp;gt;&amp;gt;&lt;/div&gt;PorcionTierra" style="swimlane;fontStyle=1;align=center;verticalAlign=top;childLayout=stackLayout;horizontal=1;startSize=40;horizontalStack=0;resizeParent=1;resizeParentMax=0;resizeLast=0;collapsible=1;marginBottom=0;whiteSpace=wrap;html=1;" vertex="1" parent="1">
          <mxGeometry x="310" y="50" width="180" height="100" as="geometry" />
        </mxCell>
        <mxCell id="OS8sJ7_-E5P468ARwp3r-3" value="" style="line;strokeWidth=1;fillColor=none;align=left;verticalAlign=middle;spacingTop=-1;spacingLeft=3;spacingRight=3;rotatable=0;labelPosition=right;points=[];portConstraint=eastwest;strokeColor=inherit;" vertex="1" parent="OS8sJ7_-E5P468ARwp3r-1">
          <mxGeometry y="40" width="180" height="8" as="geometry" />
        </mxCell>
        <mxCell id="OS8sJ7_-E5P468ARwp3r-23" value="+ gananciaAnualSoja(): int" style="text;strokeColor=none;fillColor=none;align=left;verticalAlign=top;spacingLeft=4;spacingRight=4;overflow=hidden;rotatable=0;points=[[0,0.5],[1,0.5]];portConstraint=eastwest;whiteSpace=wrap;html=1;" vertex="1" parent="OS8sJ7_-E5P468ARwp3r-1">
          <mxGeometry y="48" width="180" height="26" as="geometry" />
        </mxCell>
        <mxCell id="OS8sJ7_-E5P468ARwp3r-40" value="+ gananciaAnualTrigo(): int" style="text;strokeColor=none;fillColor=none;align=left;verticalAlign=top;spacingLeft=4;spacingRight=4;overflow=hidden;rotatable=0;points=[[0,0.5],[1,0.5]];portConstraint=eastwest;whiteSpace=wrap;html=1;" vertex="1" parent="OS8sJ7_-E5P468ARwp3r-1">
          <mxGeometry y="74" width="180" height="26" as="geometry" />
        </mxCell>
        <mxCell id="OS8sJ7_-E5P468ARwp3r-5" value="CultivoTrigo" style="swimlane;fontStyle=1;align=center;verticalAlign=top;childLayout=stackLayout;horizontal=1;startSize=26;horizontalStack=0;resizeParent=1;resizeParentMax=0;resizeLast=0;collapsible=1;marginBottom=0;whiteSpace=wrap;html=1;" vertex="1" parent="1">
          <mxGeometry x="312.5" y="240" width="175" height="86" as="geometry" />
        </mxCell>
        <mxCell id="OS8sJ7_-E5P468ARwp3r-7" value="" style="line;strokeWidth=1;fillColor=none;align=left;verticalAlign=middle;spacingTop=-1;spacingLeft=3;spacingRight=3;rotatable=0;labelPosition=right;points=[];portConstraint=eastwest;strokeColor=inherit;" vertex="1" parent="OS8sJ7_-E5P468ARwp3r-5">
          <mxGeometry y="26" width="175" height="8" as="geometry" />
        </mxCell>
        <mxCell id="OS8sJ7_-E5P468ARwp3r-43" value="+ gananciaAnualSoja(): int" style="text;strokeColor=none;fillColor=none;align=left;verticalAlign=top;spacingLeft=4;spacingRight=4;overflow=hidden;rotatable=0;points=[[0,0.5],[1,0.5]];portConstraint=eastwest;whiteSpace=wrap;html=1;" vertex="1" parent="OS8sJ7_-E5P468ARwp3r-5">
          <mxGeometry y="34" width="175" height="26" as="geometry" />
        </mxCell>
        <mxCell id="OS8sJ7_-E5P468ARwp3r-44" value="+ gananciaAnualTrigo(): int" style="text;strokeColor=none;fillColor=none;align=left;verticalAlign=top;spacingLeft=4;spacingRight=4;overflow=hidden;rotatable=0;points=[[0,0.5],[1,0.5]];portConstraint=eastwest;whiteSpace=wrap;html=1;" vertex="1" parent="OS8sJ7_-E5P468ARwp3r-5">
          <mxGeometry y="60" width="175" height="26" as="geometry" />
        </mxCell>
        <mxCell id="OS8sJ7_-E5P468ARwp3r-13" value="CultivoSoja" style="swimlane;fontStyle=1;align=center;verticalAlign=top;childLayout=stackLayout;horizontal=1;startSize=26;horizontalStack=0;resizeParent=1;resizeParentMax=0;resizeLast=0;collapsible=1;marginBottom=0;whiteSpace=wrap;html=1;" vertex="1" parent="1">
          <mxGeometry x="120" y="240" width="180" height="86" as="geometry" />
        </mxCell>
        <mxCell id="OS8sJ7_-E5P468ARwp3r-15" value="" style="line;strokeWidth=1;fillColor=none;align=left;verticalAlign=middle;spacingTop=-1;spacingLeft=3;spacingRight=3;rotatable=0;labelPosition=right;points=[];portConstraint=eastwest;strokeColor=inherit;" vertex="1" parent="OS8sJ7_-E5P468ARwp3r-13">
          <mxGeometry y="26" width="180" height="8" as="geometry" />
        </mxCell>
        <mxCell id="OS8sJ7_-E5P468ARwp3r-45" value="+ gananciaAnualSoja(): int" style="text;strokeColor=none;fillColor=none;align=left;verticalAlign=top;spacingLeft=4;spacingRight=4;overflow=hidden;rotatable=0;points=[[0,0.5],[1,0.5]];portConstraint=eastwest;whiteSpace=wrap;html=1;" vertex="1" parent="OS8sJ7_-E5P468ARwp3r-13">
          <mxGeometry y="34" width="180" height="26" as="geometry" />
        </mxCell>
        <mxCell id="OS8sJ7_-E5P468ARwp3r-46" value="+ gananciaAnualTrigo(): int" style="text;strokeColor=none;fillColor=none;align=left;verticalAlign=top;spacingLeft=4;spacingRight=4;overflow=hidden;rotatable=0;points=[[0,0.5],[1,0.5]];portConstraint=eastwest;whiteSpace=wrap;html=1;" vertex="1" parent="OS8sJ7_-E5P468ARwp3r-13">
          <mxGeometry y="60" width="180" height="26" as="geometry" />
        </mxCell>
        <mxCell id="OS8sJ7_-E5P468ARwp3r-26" value="ParcelaMixta" style="swimlane;fontStyle=1;align=center;verticalAlign=top;childLayout=stackLayout;horizontal=1;startSize=26;horizontalStack=0;resizeParent=1;resizeParentMax=0;resizeLast=0;collapsible=1;marginBottom=0;whiteSpace=wrap;html=1;" vertex="1" parent="1">
          <mxGeometry x="510" y="240" width="180" height="112" as="geometry" />
        </mxCell>
        <mxCell id="OS8sJ7_-E5P468ARwp3r-27" value="- gananciaAnual: int" style="text;strokeColor=none;fillColor=none;align=left;verticalAlign=top;spacingLeft=4;spacingRight=4;overflow=hidden;rotatable=0;points=[[0,0.5],[1,0.5]];portConstraint=eastwest;whiteSpace=wrap;html=1;" vertex="1" parent="OS8sJ7_-E5P468ARwp3r-26">
          <mxGeometry y="26" width="180" height="26" as="geometry" />
        </mxCell>
        <mxCell id="OS8sJ7_-E5P468ARwp3r-28" value="" style="line;strokeWidth=1;fillColor=none;align=left;verticalAlign=middle;spacingTop=-1;spacingLeft=3;spacingRight=3;rotatable=0;labelPosition=right;points=[];portConstraint=eastwest;strokeColor=inherit;" vertex="1" parent="OS8sJ7_-E5P468ARwp3r-26">
          <mxGeometry y="52" width="180" height="8" as="geometry" />
        </mxCell>
        <mxCell id="OS8sJ7_-E5P468ARwp3r-41" value="+ gananciaAnualSoja(): int" style="text;strokeColor=none;fillColor=none;align=left;verticalAlign=top;spacingLeft=4;spacingRight=4;overflow=hidden;rotatable=0;points=[[0,0.5],[1,0.5]];portConstraint=eastwest;whiteSpace=wrap;html=1;" vertex="1" parent="OS8sJ7_-E5P468ARwp3r-26">
          <mxGeometry y="60" width="180" height="26" as="geometry" />
        </mxCell>
        <mxCell id="OS8sJ7_-E5P468ARwp3r-42" value="+ gananciaAnualTrigo(): int" style="text;strokeColor=none;fillColor=none;align=left;verticalAlign=top;spacingLeft=4;spacingRight=4;overflow=hidden;rotatable=0;points=[[0,0.5],[1,0.5]];portConstraint=eastwest;whiteSpace=wrap;html=1;" vertex="1" parent="OS8sJ7_-E5P468ARwp3r-26">
          <mxGeometry y="86" width="180" height="26" as="geometry" />
        </mxCell>
        <mxCell id="OS8sJ7_-E5P468ARwp3r-30" value="cultivos" style="endArrow=block;endFill=1;html=1;edgeStyle=orthogonalEdgeStyle;align=left;verticalAlign=top;rounded=0;exitX=0.5;exitY=0;exitDx=0;exitDy=0;" edge="1" parent="1" source="OS8sJ7_-E5P468ARwp3r-26">
          <mxGeometry x="-0.6875" relative="1" as="geometry">
            <mxPoint x="540" y="190" as="sourcePoint" />
            <mxPoint x="490" y="109" as="targetPoint" />
            <Array as="points">
              <mxPoint x="605" y="109" />
            </Array>
            <mxPoint as="offset" />
          </mxGeometry>
        </mxCell>
        <mxCell id="OS8sJ7_-E5P468ARwp3r-31" value="4" style="edgeLabel;resizable=0;html=1;align=left;verticalAlign=bottom;" connectable="0" vertex="1" parent="OS8sJ7_-E5P468ARwp3r-30">
          <mxGeometry x="-1" relative="1" as="geometry">
            <mxPoint x="10" as="offset" />
          </mxGeometry>
        </mxCell>
        <mxCell id="OS8sJ7_-E5P468ARwp3r-32" value="" style="endArrow=block;dashed=1;endFill=0;endSize=12;html=1;rounded=0;entryX=0.499;entryY=1.09;entryDx=0;entryDy=0;entryPerimeter=0;exitX=0.5;exitY=0;exitDx=0;exitDy=0;exitPerimeter=0;" edge="1" parent="1" source="OS8sJ7_-E5P468ARwp3r-5" target="OS8sJ7_-E5P468ARwp3r-40">
          <mxGeometry width="160" relative="1" as="geometry">
            <mxPoint x="403" y="240" as="sourcePoint" />
            <mxPoint x="560" y="220" as="targetPoint" />
          </mxGeometry>
        </mxCell>
        <mxCell id="OS8sJ7_-E5P468ARwp3r-37" value="" style="endArrow=block;dashed=1;endFill=0;endSize=12;html=1;rounded=0;exitX=0.446;exitY=-0.012;exitDx=0;exitDy=0;exitPerimeter=0;" edge="1" parent="1" source="OS8sJ7_-E5P468ARwp3r-13">
          <mxGeometry width="160" relative="1" as="geometry">
            <mxPoint x="201.18000000000006" y="236.14" as="sourcePoint" />
            <mxPoint x="400" y="152" as="targetPoint" />
            <Array as="points">
              <mxPoint x="200" y="197" />
              <mxPoint x="400" y="197" />
            </Array>
          </mxGeometry>
        </mxCell>
        <mxCell id="OS8sJ7_-E5P468ARwp3r-39" value="Extends" style="edgeLabel;html=1;align=center;verticalAlign=middle;resizable=0;points=[];" vertex="1" connectable="0" parent="OS8sJ7_-E5P468ARwp3r-37">
          <mxGeometry x="0.5992" y="1" relative="1" as="geometry">
            <mxPoint x="12" as="offset" />
          </mxGeometry>
        </mxCell>
      </root>
    </mxGraphModel>
  </diagram>
</mxfile>
